<svg xmlns="http://www.w3.org/2000/svg" xmlns:xlink="http://www.w3.org/1999/xlink" width="600" zoomAndPan="magnify" viewBox="0 0 450 239.999995" height="320" preserveAspectRatio="xMidYMid meet" version="1.0"><defs><g/><clipPath id="8375d4d362"><path d="M 112.605469 59.113281 L 323.355469 59.113281 L 323.355469 157.363281 L 112.605469 157.363281 Z M 112.605469 59.113281 " clip-rule="nonzero"/></clipPath><clipPath id="ae56da4891"><path d="M 189.003906 58 L 219 58 L 219 62 L 189.003906 62 Z M 189.003906 58 " clip-rule="nonzero"/></clipPath><clipPath id="5345ec7fe2"><path d="M 246 3.089844 L 248 3.089844 L 248 15 L 246 15 Z M 246 3.089844 " clip-rule="nonzero"/></clipPath><clipPath id="f0a001cd1c"><path d="M 264 92 L 267 92 L 267 108.089844 L 264 108.089844 Z M 264 92 " clip-rule="nonzero"/></clipPath><clipPath id="0d04efe5ff"><path d="M 265 91 L 281.253906 91 L 281.253906 94 L 265 94 Z M 265 91 " clip-rule="nonzero"/></clipPath><clipPath id="b82c1de4c0"><path d="M 127 8 L 162.519531 8 L 162.519531 49 L 127 49 Z M 127 8 " clip-rule="nonzero"/></clipPath><clipPath id="e526d8231b"><rect x="0" width="163" y="0" height="61"/></clipPath><clipPath id="36a8b09584"><path d="M 59 0.359375 L 72 0.359375 L 72 17 L 59 17 Z M 59 0.359375 " clip-rule="nonzero"/></clipPath><clipPath id="6020be1581"><path d="M 179 0.359375 L 192 0.359375 L 192 17 L 179 17 Z M 179 0.359375 " clip-rule="nonzero"/></clipPath><clipPath id="c3ff4eadc8"><rect x="0" width="338" y="0" height="22"/></clipPath></defs><g clip-path="url(#8375d4d362)"><path fill="#ffffff" d="M 217.503906 157.394531 C 217.476562 157.386719 217.449219 157.378906 217.421875 157.371094 C 180.253906 146.238281 112.609375 137.589844 112.609375 137.589844 L 117.527344 120.480469 C 174 125.539062 216.566406 153.140625 217.816406 153.957031 C 219.0625 153.140625 261.628906 125.539062 318.101562 120.480469 L 323.019531 137.589844 C 323.019531 137.589844 255.375 146.238281 218.210938 157.371094 C 218.179688 157.378906 218.152344 157.386719 218.125 157.394531 C 218.054688 157.441406 217.953125 157.460938 217.816406 157.453125 C 217.675781 157.460938 217.574219 157.441406 217.503906 157.394531 Z M 217.785156 153.976562 C 217.785156 153.976562 219.050781 153.535156 217.824219 153.964844 L 217.84375 153.976562 L 217.816406 153.964844 Z M 309.324219 104.601562 L 303.40625 106.648438 L 307.046875 111.554688 C 307.046875 111.554688 253.375 122.417969 222.753906 148.902344 C 222.753906 148.902344 264.441406 121.261719 315.636719 115.226562 Z M 126.304688 104.601562 L 132.222656 106.648438 L 128.585938 111.554688 C 128.585938 111.554688 182.253906 122.417969 212.875 148.902344 C 212.875 148.902344 171.191406 121.261719 119.996094 115.226562 Z M 225.179688 82.335938 C 225.179688 82.335938 243.699219 60.238281 277.917969 59.136719 L 308.097656 101.378906 C 308.097656 101.378906 243.09375 124.542969 222.058594 146.5625 C 222.058594 146.5625 246.988281 116.226562 299.308594 98.707031 L 275.328125 64.023438 C 275.328125 64.023438 251.480469 62.667969 225.179688 82.335938 Z M 210.453125 82.335938 C 210.453125 82.335938 191.929688 60.238281 157.714844 59.136719 L 127.53125 101.378906 C 127.53125 101.378906 192.539062 124.542969 213.570312 146.5625 C 213.570312 146.5625 188.644531 116.226562 136.320312 98.707031 L 160.300781 64.023438 C 160.300781 64.023438 184.148438 62.667969 210.453125 82.335938 Z M 210.453125 82.335938 " fill-opacity="1" fill-rule="evenodd"/></g><path fill="#ffd42a" d="M 239.230469 39.597656 L 219.613281 61.46875 L 217.261719 59.128906 Z M 239.230469 39.597656 " fill-opacity="1" fill-rule="evenodd"/><path fill="#ffd42a" d="M 197.644531 80.996094 L 217.261719 59.128906 L 219.613281 61.46875 Z M 197.644531 80.996094 " fill-opacity="1" fill-rule="evenodd"/><path fill="#ffd42a" d="M 239.230469 80.996094 L 217.261719 61.46875 L 219.613281 59.125 Z M 239.230469 80.996094 " fill-opacity="1" fill-rule="evenodd"/><path fill="#ffd42a" d="M 197.644531 39.597656 L 219.613281 59.125 L 217.261719 61.46875 Z M 197.644531 39.597656 " fill-opacity="1" fill-rule="evenodd"/><path fill="#ffcc00" d="M 218.4375 31.023438 L 220.773438 60.296875 L 216.105469 60.296875 Z M 218.4375 31.023438 " fill-opacity="1" fill-rule="evenodd"/><path fill="#ffcc00" d="M 218.4375 89.570312 L 216.105469 60.296875 L 220.773438 60.296875 Z M 218.4375 89.570312 " fill-opacity="1" fill-rule="evenodd"/><path fill="#ffcc00" d="M 247.84375 60.296875 L 218.4375 61.910156 L 218.4375 58.683594 Z M 247.84375 60.296875 " fill-opacity="1" fill-rule="evenodd"/><g clip-path="url(#ae56da4891)"><path fill="#ffcc00" d="M 189.03125 60.296875 L 218.4375 58.683594 L 218.4375 61.910156 Z M 189.03125 60.296875 " fill-opacity="1" fill-rule="evenodd"/></g><path fill="#ffd42a" d="M 255.195312 6.460938 L 247.464844 15.078125 L 246.539062 14.15625 Z M 255.195312 6.460938 " fill-opacity="1" fill-rule="evenodd"/><path fill="#ffd42a" d="M 238.804688 22.773438 L 246.539062 14.15625 L 247.464844 15.078125 Z M 238.804688 22.773438 " fill-opacity="1" fill-rule="evenodd"/><path fill="#ffd42a" d="M 255.179688 22.773438 L 246.519531 15.078125 L 247.445312 14.152344 Z M 255.179688 22.773438 " fill-opacity="1" fill-rule="evenodd"/><path fill="#ffd42a" d="M 238.789062 6.457031 L 247.445312 14.152344 L 246.519531 15.078125 Z M 238.789062 6.457031 " fill-opacity="1" fill-rule="evenodd"/><g clip-path="url(#5345ec7fe2)"><path fill="#ffcc00" d="M 246.972656 3.082031 L 247.894531 14.621094 L 246.054688 14.621094 Z M 246.972656 3.082031 " fill-opacity="1" fill-rule="evenodd"/></g><path fill="#ffcc00" d="M 246.972656 26.160156 L 246.054688 14.621094 L 247.894531 14.621094 Z M 246.972656 26.160156 " fill-opacity="1" fill-rule="evenodd"/><path fill="#ffcc00" d="M 258.566406 14.621094 L 246.976562 15.257812 L 246.976562 13.984375 Z M 258.566406 14.621094 " fill-opacity="1" fill-rule="evenodd"/><path fill="#ffcc00" d="M 235.386719 14.621094 L 246.976562 13.984375 L 246.976562 15.257812 Z M 235.386719 14.621094 " fill-opacity="1" fill-rule="evenodd"/><path fill="#ffd42a" d="M 276.617188 81.378906 L 266.136719 93.0625 L 264.878906 91.8125 Z M 276.617188 81.378906 " fill-opacity="1" fill-rule="evenodd"/><path fill="#ffd42a" d="M 254.398438 103.496094 L 264.878906 91.8125 L 266.136719 93.0625 Z M 254.398438 103.496094 " fill-opacity="1" fill-rule="evenodd"/><path fill="#ffd42a" d="M 276.613281 103.496094 L 264.875 93.0625 L 266.132812 91.8125 Z M 276.613281 103.496094 " fill-opacity="1" fill-rule="evenodd"/><path fill="#ffd42a" d="M 254.394531 81.378906 L 266.132812 91.8125 L 264.875 93.0625 Z M 254.394531 81.378906 " fill-opacity="1" fill-rule="evenodd"/><path fill="#ffcc00" d="M 265.507812 76.800781 L 266.753906 92.4375 L 264.261719 92.4375 Z M 265.507812 76.800781 " fill-opacity="1" fill-rule="evenodd"/><g clip-path="url(#f0a001cd1c)"><path fill="#ffcc00" d="M 265.507812 108.078125 L 264.261719 92.4375 L 266.753906 92.4375 Z M 265.507812 108.078125 " fill-opacity="1" fill-rule="evenodd"/></g><g clip-path="url(#0d04efe5ff)"><path fill="#ffcc00" d="M 281.21875 92.4375 L 265.507812 93.300781 L 265.507812 91.574219 Z M 281.21875 92.4375 " fill-opacity="1" fill-rule="evenodd"/></g><path fill="#ffcc00" d="M 249.796875 92.4375 L 265.507812 91.574219 L 265.507812 93.300781 Z M 249.796875 92.4375 " fill-opacity="1" fill-rule="evenodd"/><g transform="matrix(1, 0, 0, 1, 137, 150)"><g clip-path="url(#e526d8231b)"><g fill="#e66b5d" fill-opacity="1"><g transform="translate(0.779514, 48.561794)"><g><path d="M 16.984375 0.96875 C 14.773438 0.96875 12.707031 0.691406 10.78125 0.140625 C 8.863281 -0.398438 7.238281 -1.046875 5.90625 -1.796875 L 4.140625 0 L 1.96875 0 L 1.640625 -13.125 L 3.84375 -13.125 C 4.332031 -11.882812 4.960938 -10.570312 5.734375 -9.1875 C 6.503906 -7.800781 7.390625 -6.5625 8.390625 -5.46875 C 9.429688 -4.332031 10.59375 -3.40625 11.875 -2.6875 C 13.164062 -1.96875 14.675781 -1.609375 16.40625 -1.609375 C 18.71875 -1.609375 20.492188 -2.175781 21.734375 -3.3125 C 22.972656 -4.445312 23.59375 -5.875 23.59375 -7.59375 C 23.59375 -9.007812 23.066406 -10.195312 22.015625 -11.15625 C 20.972656 -12.125 19.347656 -12.960938 17.140625 -13.671875 C 15.710938 -14.128906 14.394531 -14.550781 13.1875 -14.9375 C 11.988281 -15.332031 10.859375 -15.734375 9.796875 -16.140625 C 7.359375 -17.117188 5.546875 -18.507812 4.359375 -20.3125 C 3.171875 -22.125 2.578125 -24.144531 2.578125 -26.375 C 2.578125 -27.789062 2.882812 -29.148438 3.5 -30.453125 C 4.113281 -31.765625 5.007812 -32.941406 6.1875 -33.984375 C 7.3125 -34.953125 8.753906 -35.742188 10.515625 -36.359375 C 12.273438 -36.972656 14.1875 -37.28125 16.25 -37.28125 C 18.257812 -37.28125 20.144531 -37.003906 21.90625 -36.453125 C 23.664062 -35.898438 25.046875 -35.34375 26.046875 -34.78125 L 27.609375 -36.3125 L 29.84375 -36.3125 L 30.046875 -23.921875 L 27.84375 -23.921875 C 27.332031 -25.253906 26.726562 -26.613281 26.03125 -28 C 25.34375 -29.394531 24.613281 -30.550781 23.84375 -31.46875 C 23.007812 -32.457031 22.046875 -33.242188 20.953125 -33.828125 C 19.859375 -34.421875 18.582031 -34.71875 17.125 -34.71875 C 15.28125 -34.71875 13.769531 -34.195312 12.59375 -33.15625 C 11.425781 -32.125 10.84375 -30.835938 10.84375 -29.296875 C 10.84375 -27.847656 11.347656 -26.660156 12.359375 -25.734375 C 13.378906 -24.816406 14.96875 -24.007812 17.125 -23.3125 C 18.382812 -22.882812 19.671875 -22.457031 20.984375 -22.03125 C 22.296875 -21.601562 23.460938 -21.191406 24.484375 -20.796875 C 26.960938 -19.847656 28.84375 -18.53125 30.125 -16.84375 C 31.414062 -15.164062 32.0625 -13.082031 32.0625 -10.59375 C 32.0625 -9.019531 31.691406 -7.5 30.953125 -6.03125 C 30.222656 -4.570312 29.238281 -3.351562 28 -2.375 C 26.632812 -1.300781 25.054688 -0.476562 23.265625 0.09375 C 21.472656 0.675781 19.378906 0.96875 16.984375 0.96875 Z M 16.984375 0.96875 "/></g></g></g><g fill="#e66b5d" fill-opacity="1"><g transform="translate(34.788278, 48.561794)"><g><path d="M 32.65625 -12.46875 C 32.65625 -8.863281 31.453125 -5.769531 29.046875 -3.1875 C 26.640625 -0.613281 23.59375 0.671875 19.90625 0.671875 C 18.269531 0.671875 16.9375 0.503906 15.90625 0.171875 C 14.882812 -0.160156 14.046875 -0.566406 13.390625 -1.046875 L 13.171875 -1.046875 L 13.171875 6.140625 C 13.171875 6.734375 13.300781 7.253906 13.5625 7.703125 C 13.832031 8.148438 14.207031 8.472656 14.6875 8.671875 C 15.144531 8.859375 15.796875 9.03125 16.640625 9.1875 C 17.484375 9.34375 18.1875 9.4375 18.75 9.46875 L 18.75 11.359375 L 0.28125 11.359375 L 0.28125 9.46875 C 0.707031 9.4375 1.242188 9.375 1.890625 9.28125 C 2.535156 9.1875 3.023438 9.085938 3.359375 8.984375 C 3.898438 8.796875 4.269531 8.472656 4.46875 8.015625 C 4.664062 7.566406 4.765625 7.050781 4.765625 6.46875 L 4.765625 -19.703125 C 4.710938 -20.265625 4.578125 -20.757812 4.359375 -21.1875 C 4.148438 -21.613281 3.816406 -21.988281 3.359375 -22.3125 C 3.015625 -22.53125 2.5625 -22.710938 2 -22.859375 C 1.4375 -23.003906 0.878906 -23.101562 0.328125 -23.15625 L 0.328125 -25.03125 L 12.796875 -25.6875 L 13.171875 -25.359375 L 13.171875 -22.515625 L 13.390625 -22.46875 C 14.515625 -23.613281 15.757812 -24.5 17.125 -25.125 C 18.5 -25.757812 19.863281 -26.078125 21.21875 -26.078125 C 24.75 -26.078125 27.535156 -24.828125 29.578125 -22.328125 C 31.628906 -19.828125 32.65625 -16.539062 32.65625 -12.46875 Z M 23.46875 -12.359375 C 23.46875 -13.640625 23.375 -14.863281 23.1875 -16.03125 C 23 -17.195312 22.664062 -18.242188 22.1875 -19.171875 C 21.726562 -20.085938 21.117188 -20.816406 20.359375 -21.359375 C 19.597656 -21.910156 18.671875 -22.1875 17.578125 -22.1875 C 16.472656 -22.1875 15.585938 -21.992188 14.921875 -21.609375 C 14.253906 -21.222656 13.671875 -20.722656 13.171875 -20.109375 L 13.171875 -5.609375 C 13.273438 -5.265625 13.472656 -4.820312 13.765625 -4.28125 C 14.054688 -3.75 14.347656 -3.320312 14.640625 -3 C 15.066406 -2.53125 15.550781 -2.1875 16.09375 -1.96875 C 16.644531 -1.75 17.242188 -1.640625 17.890625 -1.640625 C 19.578125 -1.640625 20.925781 -2.546875 21.9375 -4.359375 C 22.957031 -6.179688 23.46875 -8.847656 23.46875 -12.359375 Z M 23.46875 -12.359375 "/></g></g></g><g fill="#e66b5d" fill-opacity="1"><g transform="translate(69.257658, 48.561794)"><g><path d="M 30.734375 -0.53125 C 29.984375 -0.207031 29.09375 0.0859375 28.0625 0.359375 C 27.039062 0.628906 25.960938 0.765625 24.828125 0.765625 C 22.722656 0.765625 21.175781 0.457031 20.1875 -0.15625 C 19.195312 -0.78125 18.523438 -1.675781 18.171875 -2.84375 L 18.015625 -2.84375 C 17.429688 -2.257812 16.867188 -1.757812 16.328125 -1.34375 C 15.796875 -0.9375 15.222656 -0.59375 14.609375 -0.3125 C 13.804688 0.0625 13.035156 0.335938 12.296875 0.515625 C 11.554688 0.703125 10.519531 0.796875 9.1875 0.796875 C 7.207031 0.796875 5.515625 0.210938 4.109375 -0.953125 C 2.710938 -2.128906 2.015625 -3.679688 2.015625 -5.609375 C 2.015625 -6.710938 2.164062 -7.648438 2.46875 -8.421875 C 2.78125 -9.203125 3.21875 -9.890625 3.78125 -10.484375 C 4.300781 -11.035156 4.894531 -11.488281 5.5625 -11.84375 C 6.238281 -12.207031 6.976562 -12.539062 7.78125 -12.84375 C 9.3125 -13.40625 11.148438 -13.988281 13.296875 -14.59375 C 15.453125 -15.195312 17.023438 -15.738281 18.015625 -16.21875 L 18.015625 -18.6875 C 18.015625 -19.101562 17.976562 -19.660156 17.90625 -20.359375 C 17.84375 -21.066406 17.703125 -21.660156 17.484375 -22.140625 C 17.242188 -22.679688 16.863281 -23.140625 16.34375 -23.515625 C 15.832031 -23.890625 15.160156 -24.078125 14.328125 -24.078125 C 13.578125 -24.078125 12.945312 -23.96875 12.4375 -23.75 C 11.9375 -23.539062 11.535156 -23.328125 11.234375 -23.109375 C 11.285156 -22.765625 11.429688 -22.242188 11.671875 -21.546875 C 11.910156 -20.847656 12.03125 -20.175781 12.03125 -19.53125 C 12.03125 -19.238281 11.953125 -18.875 11.796875 -18.4375 C 11.640625 -18 11.414062 -17.65625 11.125 -17.40625 C 10.738281 -17.0625 10.300781 -16.796875 9.8125 -16.609375 C 9.320312 -16.421875 8.578125 -16.328125 7.578125 -16.328125 C 6.140625 -16.328125 5.050781 -16.671875 4.3125 -17.359375 C 3.582031 -18.054688 3.21875 -18.957031 3.21875 -20.0625 C 3.21875 -21.019531 3.597656 -21.875 4.359375 -22.625 C 5.117188 -23.382812 6.046875 -24.015625 7.140625 -24.515625 C 8.210938 -25.023438 9.445312 -25.421875 10.84375 -25.703125 C 12.25 -25.984375 13.546875 -26.125 14.734375 -26.125 C 16.390625 -26.125 17.90625 -26.023438 19.28125 -25.828125 C 20.664062 -25.628906 21.914062 -25.222656 23.03125 -24.609375 C 24.082031 -24.015625 24.921875 -23.148438 25.546875 -22.015625 C 26.171875 -20.878906 26.484375 -19.398438 26.484375 -17.578125 C 26.484375 -15.648438 26.441406 -13.363281 26.359375 -10.71875 C 26.285156 -8.070312 26.25 -6.332031 26.25 -5.5 C 26.25 -4.726562 26.363281 -4.117188 26.59375 -3.671875 C 26.820312 -3.234375 27.175781 -2.90625 27.65625 -2.6875 C 27.945312 -2.550781 28.40625 -2.46875 29.03125 -2.4375 C 29.65625 -2.414062 30.222656 -2.40625 30.734375 -2.40625 Z M 18.015625 -13.875 C 17.054688 -13.550781 16.109375 -13.175781 15.171875 -12.75 C 14.234375 -12.332031 13.46875 -11.894531 12.875 -11.4375 C 12.238281 -10.957031 11.738281 -10.347656 11.375 -9.609375 C 11.019531 -8.867188 10.84375 -7.992188 10.84375 -6.984375 C 10.84375 -5.648438 11.144531 -4.6875 11.75 -4.09375 C 12.363281 -3.5 13.113281 -3.203125 14 -3.203125 C 14.9375 -3.203125 15.707031 -3.390625 16.3125 -3.765625 C 16.914062 -4.148438 17.445312 -4.625 17.90625 -5.1875 Z M 18.015625 -13.875 "/></g></g></g><g fill="#e66b5d" fill-opacity="1"><g transform="translate(100.477138, 48.561794)"><g><path d="M 26.96875 -20.703125 C 26.96875 -19.398438 26.566406 -18.257812 25.765625 -17.28125 C 24.960938 -16.300781 23.90625 -15.8125 22.59375 -15.8125 C 21.351562 -15.8125 20.300781 -16.125 19.4375 -16.75 C 18.570312 -17.382812 18.140625 -18.316406 18.140625 -19.546875 C 18.140625 -20.148438 18.179688 -20.613281 18.265625 -20.9375 C 18.359375 -21.269531 18.4375 -21.582031 18.5 -21.875 C 17.71875 -21.84375 16.890625 -21.570312 16.015625 -21.0625 C 15.148438 -20.550781 14.382812 -19.867188 13.71875 -19.015625 L 13.71875 -4.96875 C 13.71875 -4.363281 13.8125 -3.863281 14 -3.46875 C 14.1875 -3.082031 14.5 -2.78125 14.9375 -2.5625 C 15.3125 -2.375 15.921875 -2.210938 16.765625 -2.078125 C 17.617188 -1.953125 18.234375 -1.882812 18.609375 -1.875 L 18.609375 0 L 1.484375 0 L 1.484375 -1.875 C 1.910156 -1.90625 2.335938 -1.945312 2.765625 -2 C 3.203125 -2.0625 3.578125 -2.144531 3.890625 -2.25 C 4.429688 -2.4375 4.804688 -2.722656 5.015625 -3.109375 C 5.222656 -3.503906 5.328125 -4.019531 5.328125 -4.65625 L 5.328125 -19.546875 C 5.328125 -20.160156 5.179688 -20.710938 4.890625 -21.203125 C 4.597656 -21.691406 4.25 -22.078125 3.84375 -22.359375 C 3.53125 -22.566406 3.140625 -22.738281 2.671875 -22.875 C 2.203125 -23.007812 1.6875 -23.101562 1.125 -23.15625 L 1.125 -25.03125 L 13.328125 -25.6875 L 13.71875 -25.3125 L 13.71875 -21.59375 L 13.8125 -21.59375 C 14.988281 -22.957031 16.238281 -24.023438 17.5625 -24.796875 C 18.882812 -25.578125 20.265625 -25.96875 21.703125 -25.96875 C 23.285156 -25.96875 24.554688 -25.476562 25.515625 -24.5 C 26.484375 -23.519531 26.96875 -22.253906 26.96875 -20.703125 Z M 26.96875 -20.703125 "/></g></g></g><g clip-path="url(#b82c1de4c0)"><g fill="#e66b5d" fill-opacity="1"><g transform="translate(127.730212, 48.561794)"><g><path d="M 34.3125 0 L 22.265625 0 C 20.773438 -2.613281 19.414062 -4.828125 18.1875 -6.640625 C 16.957031 -8.453125 15.800781 -10.132812 14.71875 -11.6875 L 13.171875 -10.390625 L 13.171875 -4.8125 C 13.171875 -4.195312 13.257812 -3.691406 13.4375 -3.296875 C 13.625 -2.910156 13.972656 -2.625 14.484375 -2.4375 C 14.785156 -2.289062 15.140625 -2.164062 15.546875 -2.0625 C 15.960938 -1.96875 16.375 -1.90625 16.78125 -1.875 L 16.78125 0 L 0.953125 0 L 0.953125 -1.875 C 1.378906 -1.90625 1.800781 -1.945312 2.21875 -2 C 2.644531 -2.0625 3.023438 -2.144531 3.359375 -2.25 C 3.898438 -2.4375 4.269531 -2.722656 4.46875 -3.109375 C 4.664062 -3.503906 4.765625 -4.019531 4.765625 -4.65625 L 4.765625 -33.1875 C 4.765625 -33.75 4.640625 -34.332031 4.390625 -34.9375 C 4.140625 -35.539062 3.773438 -36 3.296875 -36.3125 C 2.972656 -36.519531 2.488281 -36.691406 1.84375 -36.828125 C 1.195312 -36.960938 0.609375 -37.046875 0.078125 -37.078125 L 0.078125 -38.953125 L 12.796875 -39.609375 L 13.171875 -39.203125 L 13.171875 -12.796875 C 14.441406 -13.921875 15.863281 -15.222656 17.4375 -16.703125 C 19.019531 -18.191406 20.285156 -19.421875 21.234375 -20.390625 C 21.796875 -20.972656 22.109375 -21.410156 22.171875 -21.703125 C 22.234375 -22.003906 22.265625 -22.191406 22.265625 -22.265625 C 22.265625 -22.566406 21.992188 -22.820312 21.453125 -23.03125 C 20.921875 -23.238281 20.113281 -23.414062 19.03125 -23.5625 L 19.03125 -25.390625 L 32.03125 -25.390625 L 32.03125 -23.625 C 30.332031 -23.144531 29.035156 -22.691406 28.140625 -22.265625 C 27.242188 -21.847656 26.265625 -21.289062 25.203125 -20.59375 C 24.503906 -20.132812 23.828125 -19.65625 23.171875 -19.15625 C 22.515625 -18.65625 21.757812 -18.023438 20.90625 -17.265625 C 22.570312 -14.847656 24.113281 -12.609375 25.53125 -10.546875 C 26.945312 -8.484375 28.429688 -6.296875 29.984375 -3.984375 C 30.515625 -3.191406 31.171875 -2.65625 31.953125 -2.375 C 32.742188 -2.101562 33.53125 -1.9375 34.3125 -1.875 Z M 34.3125 0 "/></g></g></g></g></g></g><g transform="matrix(1, 0, 0, 1, 56, 213)"><g clip-path="url(#c3ff4eadc8)"><g fill="#ffffff" fill-opacity="1"><g transform="translate(0.751718, 16.369915)"><g><path d="M 3.40625 -14.9375 L 3.40625 -0.984375 L 11.59375 -0.984375 L 11.59375 0 L 2.375 0 L 2.375 -14.9375 Z M 3.40625 -14.9375 "/></g></g></g><g fill="#ffffff" fill-opacity="1"><g transform="translate(13.439783, 16.369915)"><g><path d="M 3.40625 -14.9375 L 3.40625 0 L 2.375 0 L 2.375 -14.9375 Z M 3.40625 -14.9375 "/></g></g></g><g fill="#ffffff" fill-opacity="1"><g transform="translate(19.226214, 16.369915)"><g><path d="M 10.96875 -14.9375 L 10.96875 -13.953125 L 6.5625 -13.953125 L 6.5625 0 L 5.53125 0 L 5.53125 -13.953125 L 1.171875 -13.953125 L 1.171875 -14.9375 Z M 10.96875 -14.9375 "/></g></g></g><g fill="#ffffff" fill-opacity="1"><g transform="translate(31.367199, 16.369915)"><g><path d="M 11.59375 -14.9375 L 11.59375 -13.953125 L 3.40625 -13.953125 L 3.40625 -8.015625 L 10.78125 -8.015625 L 10.78125 -7.03125 L 3.40625 -7.03125 L 3.40625 -0.984375 L 11.890625 -0.984375 L 11.890625 0 L 2.375 0 L 2.375 -14.9375 Z M 11.59375 -14.9375 "/></g></g></g><g fill="#ffffff" fill-opacity="1"><g transform="translate(44.812757, 16.369915)"><g><path d="M 10.75 0 L 6.84375 -6.359375 C 6.539062 -6.296875 6.164062 -6.265625 5.71875 -6.265625 L 3.40625 -6.265625 L 3.40625 0 L 2.375 0 L 2.375 -14.9375 L 5.78125 -14.9375 C 6.570312 -14.9375 7.328125 -14.78125 8.046875 -14.46875 C 8.773438 -14.164062 9.363281 -13.695312 9.8125 -13.0625 C 10.269531 -12.4375 10.5 -11.65625 10.5 -10.71875 C 10.5 -9.800781 10.285156 -8.972656 9.859375 -8.234375 C 9.441406 -7.503906 8.789062 -6.96875 7.90625 -6.625 L 11.953125 0 Z M 5.65625 -7.265625 C 7.019531 -7.265625 7.992188 -7.597656 8.578125 -8.265625 C 9.160156 -8.941406 9.453125 -9.742188 9.453125 -10.671875 C 9.453125 -11.265625 9.304688 -11.8125 9.015625 -12.3125 C 8.734375 -12.8125 8.320312 -13.207031 7.78125 -13.5 C 7.25 -13.800781 6.632812 -13.953125 5.9375 -13.953125 L 3.40625 -13.953125 L 3.40625 -7.265625 Z M 5.65625 -7.265625 "/></g></g></g><g clip-path="url(#36a8b09584)"><g fill="#ffffff" fill-opacity="1"><g transform="translate(58.132069, 16.369915)"><g><path d="M 10.671875 -4.953125 L 4.078125 -4.953125 L 2.109375 0 L 1.078125 0 L 7.390625 -15.59375 L 7.46875 -15.59375 L 13.78125 0 L 12.625 0 Z M 10.296875 -5.921875 L 7.40625 -13.265625 L 4.46875 -5.921875 Z M 10.296875 -5.921875 "/></g></g></g></g><g fill="#ffffff" fill-opacity="1"><g transform="translate(72.398251, 16.369915)"><g><path d="M 13.109375 -0.984375 C 12.566406 -0.648438 11.953125 -0.375 11.265625 -0.15625 C 10.578125 0.0625 9.835938 0.171875 9.046875 0.171875 C 7.546875 0.171875 6.21875 -0.164062 5.0625 -0.84375 C 3.914062 -1.519531 3.023438 -2.429688 2.390625 -3.578125 C 1.753906 -4.722656 1.4375 -5.984375 1.4375 -7.359375 C 1.4375 -8.804688 1.765625 -10.117188 2.421875 -11.296875 C 3.078125 -12.472656 3.976562 -13.398438 5.125 -14.078125 C 6.28125 -14.765625 7.5625 -15.109375 8.96875 -15.109375 C 10.4375 -15.109375 11.796875 -14.726562 13.046875 -13.96875 L 12.609375 -13.03125 C 11.429688 -13.757812 10.222656 -14.125 8.984375 -14.125 C 7.816406 -14.125 6.734375 -13.820312 5.734375 -13.21875 C 4.742188 -12.625 3.957031 -11.8125 3.375 -10.78125 C 2.789062 -9.75 2.5 -8.625 2.5 -7.40625 C 2.5 -6.195312 2.765625 -5.09375 3.296875 -4.09375 C 3.835938 -3.09375 4.597656 -2.296875 5.578125 -1.703125 C 6.554688 -1.117188 7.691406 -0.828125 8.984375 -0.828125 C 10.273438 -0.828125 11.488281 -1.179688 12.625 -1.890625 Z M 13.109375 -0.984375 "/></g></g></g><g fill="#ffffff" fill-opacity="1"><g transform="translate(86.93797, 16.369915)"><g><path d="M 13.046875 -14.9375 L 7.46875 -5.328125 L 7.46875 0 L 6.4375 0 L 6.4375 -5.328125 L 0.859375 -14.9375 L 2.125 -14.9375 L 6.984375 -6.484375 L 11.8125 -14.9375 Z M 13.046875 -14.9375 "/></g></g></g><g fill="#ffffff" fill-opacity="1"><g transform="translate(100.846442, 16.369915)"><g/></g></g><g fill="#ffffff" fill-opacity="1"><g transform="translate(107.306199, 16.369915)"><g><path d="M 3.40625 -14.9375 L 3.40625 0 L 2.375 0 L 2.375 -14.9375 Z M 3.40625 -14.9375 "/></g></g></g><g fill="#ffffff" fill-opacity="1"><g transform="translate(113.092637, 16.369915)"><g><path d="M 14.921875 -14.9375 L 14.921875 0.359375 L 14.875 0.359375 L 3.375 -12.609375 L 3.390625 0 L 2.375 0 L 2.375 -15.265625 L 2.4375 -15.265625 L 13.953125 -2.1875 L 13.9375 -14.9375 Z M 14.921875 -14.9375 "/></g></g></g><g fill="#ffffff" fill-opacity="1"><g transform="translate(130.388793, 16.369915)"><g><path d="M 14.921875 -14.9375 L 14.921875 0.359375 L 14.875 0.359375 L 3.375 -12.609375 L 3.390625 0 L 2.375 0 L 2.375 -15.265625 L 2.4375 -15.265625 L 13.953125 -2.1875 L 13.9375 -14.9375 Z M 14.921875 -14.9375 "/></g></g></g><g fill="#ffffff" fill-opacity="1"><g transform="translate(147.684975, 16.369915)"><g><path d="M 1.4375 -7.453125 C 1.4375 -8.828125 1.78125 -10.097656 2.46875 -11.265625 C 3.15625 -12.441406 4.078125 -13.375 5.234375 -14.0625 C 6.398438 -14.757812 7.671875 -15.109375 9.046875 -15.109375 C 10.421875 -15.109375 11.695312 -14.757812 12.875 -14.0625 C 14.0625 -13.375 15 -12.441406 15.6875 -11.265625 C 16.375 -10.097656 16.71875 -8.828125 16.71875 -7.453125 C 16.71875 -6.078125 16.375 -4.800781 15.6875 -3.625 C 15 -2.457031 14.0625 -1.53125 12.875 -0.84375 C 11.695312 -0.164062 10.421875 0.171875 9.046875 0.171875 C 7.660156 0.171875 6.382812 -0.15625 5.21875 -0.8125 C 4.050781 -1.476562 3.128906 -2.390625 2.453125 -3.546875 C 1.773438 -4.710938 1.4375 -6.015625 1.4375 -7.453125 Z M 2.484375 -7.421875 C 2.484375 -6.234375 2.773438 -5.132812 3.359375 -4.125 C 3.953125 -3.113281 4.742188 -2.3125 5.734375 -1.71875 C 6.734375 -1.125 7.832031 -0.828125 9.03125 -0.828125 C 10.238281 -0.828125 11.347656 -1.117188 12.359375 -1.703125 C 13.378906 -2.296875 14.179688 -3.097656 14.765625 -4.109375 C 15.359375 -5.128906 15.65625 -6.242188 15.65625 -7.453125 C 15.65625 -8.660156 15.359375 -9.769531 14.765625 -10.78125 C 14.171875 -11.800781 13.367188 -12.613281 12.359375 -13.21875 C 11.347656 -13.820312 10.242188 -14.125 9.046875 -14.125 C 7.835938 -14.125 6.726562 -13.816406 5.71875 -13.203125 C 4.707031 -12.597656 3.914062 -11.78125 3.34375 -10.75 C 2.769531 -9.726562 2.484375 -8.617188 2.484375 -7.421875 Z M 2.484375 -7.421875 "/></g></g></g><g fill="#ffffff" fill-opacity="1"><g transform="translate(164.981131, 16.369915)"><g><path d="M 13.75 -14.9375 L 7.390625 0.6875 L 1.03125 -14.9375 L 2.234375 -14.9375 L 7.453125 -1.71875 L 12.5625 -14.9375 Z M 13.75 -14.9375 "/></g></g></g><g clip-path="url(#6020be1581)"><g fill="#ffffff" fill-opacity="1"><g transform="translate(178.026907, 16.369915)"><g><path d="M 10.671875 -4.953125 L 4.078125 -4.953125 L 2.109375 0 L 1.078125 0 L 7.390625 -15.59375 L 7.46875 -15.59375 L 13.78125 0 L 12.625 0 Z M 10.296875 -5.921875 L 7.40625 -13.265625 L 4.46875 -5.921875 Z M 10.296875 -5.921875 "/></g></g></g></g><g fill="#ffffff" fill-opacity="1"><g transform="translate(191.767045, 16.369915)"><g><path d="M 10.96875 -14.9375 L 10.96875 -13.953125 L 6.5625 -13.953125 L 6.5625 0 L 5.53125 0 L 5.53125 -13.953125 L 1.171875 -13.953125 L 1.171875 -14.9375 Z M 10.96875 -14.9375 "/></g></g></g><g fill="#ffffff" fill-opacity="1"><g transform="translate(203.908037, 16.369915)"><g><path d="M 3.40625 -14.9375 L 3.40625 0 L 2.375 0 L 2.375 -14.9375 Z M 3.40625 -14.9375 "/></g></g></g><g fill="#ffffff" fill-opacity="1"><g transform="translate(209.694474, 16.369915)"><g><path d="M 1.4375 -7.453125 C 1.4375 -8.828125 1.78125 -10.097656 2.46875 -11.265625 C 3.15625 -12.441406 4.078125 -13.375 5.234375 -14.0625 C 6.398438 -14.757812 7.671875 -15.109375 9.046875 -15.109375 C 10.421875 -15.109375 11.695312 -14.757812 12.875 -14.0625 C 14.0625 -13.375 15 -12.441406 15.6875 -11.265625 C 16.375 -10.097656 16.71875 -8.828125 16.71875 -7.453125 C 16.71875 -6.078125 16.375 -4.800781 15.6875 -3.625 C 15 -2.457031 14.0625 -1.53125 12.875 -0.84375 C 11.695312 -0.164062 10.421875 0.171875 9.046875 0.171875 C 7.660156 0.171875 6.382812 -0.15625 5.21875 -0.8125 C 4.050781 -1.476562 3.128906 -2.390625 2.453125 -3.546875 C 1.773438 -4.710938 1.4375 -6.015625 1.4375 -7.453125 Z M 2.484375 -7.421875 C 2.484375 -6.234375 2.773438 -5.132812 3.359375 -4.125 C 3.953125 -3.113281 4.742188 -2.3125 5.734375 -1.71875 C 6.734375 -1.125 7.832031 -0.828125 9.03125 -0.828125 C 10.238281 -0.828125 11.347656 -1.117188 12.359375 -1.703125 C 13.378906 -2.296875 14.179688 -3.097656 14.765625 -4.109375 C 15.359375 -5.128906 15.65625 -6.242188 15.65625 -7.453125 C 15.65625 -8.660156 15.359375 -9.769531 14.765625 -10.78125 C 14.171875 -11.800781 13.367188 -12.613281 12.359375 -13.21875 C 11.347656 -13.820312 10.242188 -14.125 9.046875 -14.125 C 7.835938 -14.125 6.726562 -13.816406 5.71875 -13.203125 C 4.707031 -12.597656 3.914062 -11.78125 3.34375 -10.75 C 2.769531 -9.726562 2.484375 -8.617188 2.484375 -7.421875 Z M 2.484375 -7.421875 "/></g></g></g><g fill="#ffffff" fill-opacity="1"><g transform="translate(227.83231, 16.369915)"><g><path d="M 14.921875 -14.9375 L 14.921875 0.359375 L 14.875 0.359375 L 3.375 -12.609375 L 3.390625 0 L 2.375 0 L 2.375 -15.265625 L 2.4375 -15.265625 L 13.953125 -2.1875 L 13.9375 -14.9375 Z M 14.921875 -14.9375 "/></g></g></g><g fill="#ffffff" fill-opacity="1"><g transform="translate(245.128466, 16.369915)"><g><path d="M 9.84375 -13.265625 C 9.34375 -13.503906 8.78125 -13.707031 8.15625 -13.875 C 7.539062 -14.039062 6.941406 -14.125 6.359375 -14.125 C 5.378906 -14.125 4.59375 -13.878906 4 -13.390625 C 3.40625 -12.910156 3.109375 -12.289062 3.109375 -11.53125 C 3.109375 -11 3.265625 -10.546875 3.578125 -10.171875 C 3.898438 -9.804688 4.304688 -9.5 4.796875 -9.25 C 5.285156 -9 5.914062 -8.726562 6.6875 -8.4375 C 7.53125 -8.132812 8.226562 -7.820312 8.78125 -7.5 C 9.34375 -7.175781 9.8125 -6.734375 10.1875 -6.171875 C 10.5625 -5.617188 10.75 -4.910156 10.75 -4.046875 C 10.75 -3.210938 10.550781 -2.476562 10.15625 -1.84375 C 9.769531 -1.207031 9.222656 -0.710938 8.515625 -0.359375 C 7.804688 -0.00390625 6.992188 0.171875 6.078125 0.171875 C 4.492188 0.171875 2.925781 -0.34375 1.375 -1.375 L 1.859375 -2.203125 C 2.367188 -1.816406 3.003906 -1.472656 3.765625 -1.171875 C 4.523438 -0.878906 5.265625 -0.734375 5.984375 -0.734375 C 6.609375 -0.734375 7.203125 -0.851562 7.765625 -1.09375 C 8.335938 -1.34375 8.800781 -1.71875 9.15625 -2.21875 C 9.519531 -2.71875 9.703125 -3.316406 9.703125 -4.015625 C 9.703125 -4.679688 9.535156 -5.238281 9.203125 -5.6875 C 8.878906 -6.132812 8.46875 -6.492188 7.96875 -6.765625 C 7.46875 -7.035156 6.835938 -7.3125 6.078125 -7.59375 C 5.234375 -7.90625 4.535156 -8.203125 3.984375 -8.484375 C 3.441406 -8.773438 2.984375 -9.160156 2.609375 -9.640625 C 2.242188 -10.117188 2.0625 -10.710938 2.0625 -11.421875 C 2.0625 -12.128906 2.238281 -12.75 2.59375 -13.28125 C 2.957031 -13.820312 3.457031 -14.242188 4.09375 -14.546875 C 4.726562 -14.847656 5.441406 -15.007812 6.234375 -15.03125 C 6.898438 -15.03125 7.59375 -14.9375 8.3125 -14.75 C 9.039062 -14.570312 9.6875 -14.34375 10.25 -14.0625 Z M 9.84375 -13.265625 "/></g></g></g><g fill="#ffffff" fill-opacity="1"><g transform="translate(257.353618, 16.369915)"><g/></g></g><g fill="#ffffff" fill-opacity="1"><g transform="translate(263.813376, 16.369915)"><g><path d="M 13.65625 -1.046875 C 13.15625 -0.710938 12.460938 -0.425781 11.578125 -0.1875 C 10.703125 0.0507812 9.890625 0.171875 9.140625 0.171875 C 7.609375 0.171875 6.257812 -0.15625 5.09375 -0.8125 C 3.925781 -1.476562 3.023438 -2.378906 2.390625 -3.515625 C 1.753906 -4.648438 1.4375 -5.921875 1.4375 -7.328125 C 1.4375 -8.816406 1.78125 -10.148438 2.46875 -11.328125 C 3.15625 -12.515625 4.078125 -13.441406 5.234375 -14.109375 C 6.398438 -14.773438 7.679688 -15.109375 9.078125 -15.109375 C 10.578125 -15.109375 11.941406 -14.742188 13.171875 -14.015625 L 12.796875 -13.09375 C 12.285156 -13.382812 11.707031 -13.617188 11.0625 -13.796875 C 10.425781 -13.984375 9.796875 -14.078125 9.171875 -14.078125 C 7.921875 -14.078125 6.785156 -13.785156 5.765625 -13.203125 C 4.742188 -12.617188 3.941406 -11.816406 3.359375 -10.796875 C 2.773438 -9.785156 2.484375 -8.648438 2.484375 -7.390625 C 2.484375 -6.148438 2.757812 -5.03125 3.3125 -4.03125 C 3.863281 -3.039062 4.640625 -2.257812 5.640625 -1.6875 C 6.648438 -1.125 7.804688 -0.84375 9.109375 -0.84375 C 9.710938 -0.84375 10.335938 -0.914062 10.984375 -1.0625 C 11.628906 -1.207031 12.175781 -1.40625 12.625 -1.65625 L 12.625 -5.8125 L 9.265625 -5.8125 L 9.265625 -6.796875 L 13.65625 -6.796875 Z M 13.65625 -1.046875 "/></g></g></g><g fill="#ffffff" fill-opacity="1"><g transform="translate(279.405168, 16.369915)"><g><path d="M 10.75 0 L 6.84375 -6.359375 C 6.539062 -6.296875 6.164062 -6.265625 5.71875 -6.265625 L 3.40625 -6.265625 L 3.40625 0 L 2.375 0 L 2.375 -14.9375 L 5.78125 -14.9375 C 6.570312 -14.9375 7.328125 -14.78125 8.046875 -14.46875 C 8.773438 -14.164062 9.363281 -13.695312 9.8125 -13.0625 C 10.269531 -12.4375 10.5 -11.65625 10.5 -10.71875 C 10.5 -9.800781 10.285156 -8.972656 9.859375 -8.234375 C 9.441406 -7.503906 8.789062 -6.96875 7.90625 -6.625 L 11.953125 0 Z M 5.65625 -7.265625 C 7.019531 -7.265625 7.992188 -7.597656 8.578125 -8.265625 C 9.160156 -8.941406 9.453125 -9.742188 9.453125 -10.671875 C 9.453125 -11.265625 9.304688 -11.8125 9.015625 -12.3125 C 8.734375 -12.8125 8.320312 -13.207031 7.78125 -13.5 C 7.25 -13.800781 6.632812 -13.953125 5.9375 -13.953125 L 3.40625 -13.953125 L 3.40625 -7.265625 Z M 5.65625 -7.265625 "/></g></g></g><g fill="#ffffff" fill-opacity="1"><g transform="translate(292.577203, 16.369915)"><g><path d="M 1.4375 -7.453125 C 1.4375 -8.828125 1.78125 -10.097656 2.46875 -11.265625 C 3.15625 -12.441406 4.078125 -13.375 5.234375 -14.0625 C 6.398438 -14.757812 7.671875 -15.109375 9.046875 -15.109375 C 10.421875 -15.109375 11.695312 -14.757812 12.875 -14.0625 C 14.0625 -13.375 15 -12.441406 15.6875 -11.265625 C 16.375 -10.097656 16.71875 -8.828125 16.71875 -7.453125 C 16.71875 -6.078125 16.375 -4.800781 15.6875 -3.625 C 15 -2.457031 14.0625 -1.53125 12.875 -0.84375 C 11.695312 -0.164062 10.421875 0.171875 9.046875 0.171875 C 7.660156 0.171875 6.382812 -0.15625 5.21875 -0.8125 C 4.050781 -1.476562 3.128906 -2.390625 2.453125 -3.546875 C 1.773438 -4.710938 1.4375 -6.015625 1.4375 -7.453125 Z M 2.484375 -7.421875 C 2.484375 -6.234375 2.773438 -5.132812 3.359375 -4.125 C 3.953125 -3.113281 4.742188 -2.3125 5.734375 -1.71875 C 6.734375 -1.125 7.832031 -0.828125 9.03125 -0.828125 C 10.238281 -0.828125 11.347656 -1.117188 12.359375 -1.703125 C 13.378906 -2.296875 14.179688 -3.097656 14.765625 -4.109375 C 15.359375 -5.128906 15.65625 -6.242188 15.65625 -7.453125 C 15.65625 -8.660156 15.359375 -9.769531 14.765625 -10.78125 C 14.171875 -11.800781 13.367188 -12.613281 12.359375 -13.21875 C 11.347656 -13.820312 10.242188 -14.125 9.046875 -14.125 C 7.835938 -14.125 6.726562 -13.816406 5.71875 -13.203125 C 4.707031 -12.597656 3.914062 -11.78125 3.34375 -10.75 C 2.769531 -9.726562 2.484375 -8.617188 2.484375 -7.421875 Z M 2.484375 -7.421875 "/></g></g></g><g fill="#ffffff" fill-opacity="1"><g transform="translate(310.715039, 16.369915)"><g><path d="M 3.328125 -5.046875 C 3.328125 -4.191406 3.5 -3.445312 3.84375 -2.8125 C 4.195312 -2.175781 4.6875 -1.6875 5.3125 -1.34375 C 5.9375 -1 6.640625 -0.828125 7.421875 -0.828125 C 8.222656 -0.828125 8.9375 -1 9.5625 -1.34375 C 10.1875 -1.6875 10.675781 -2.175781 11.03125 -2.8125 C 11.394531 -3.445312 11.578125 -4.191406 11.578125 -5.046875 L 11.578125 -14.9375 L 12.59375 -14.9375 L 12.59375 -4.984375 C 12.59375 -3.921875 12.363281 -3.003906 11.90625 -2.234375 C 11.457031 -1.460938 10.84375 -0.867188 10.0625 -0.453125 C 9.289062 -0.0351562 8.410156 0.171875 7.421875 0.171875 C 6.460938 0.171875 5.59375 -0.0351562 4.8125 -0.453125 C 4.03125 -0.867188 3.414062 -1.460938 2.96875 -2.234375 C 2.519531 -3.003906 2.296875 -3.921875 2.296875 -4.984375 L 2.296875 -14.9375 L 3.328125 -14.9375 Z M 3.328125 -5.046875 "/></g></g></g><g fill="#ffffff" fill-opacity="1"><g transform="translate(325.591411, 16.369915)"><g><path d="M 5.828125 -14.9375 C 7.242188 -14.9375 8.367188 -14.578125 9.203125 -13.859375 C 10.035156 -13.140625 10.453125 -12.09375 10.453125 -10.71875 C 10.453125 -9.925781 10.285156 -9.191406 9.953125 -8.515625 C 9.617188 -7.847656 9.097656 -7.304688 8.390625 -6.890625 C 7.679688 -6.472656 6.789062 -6.265625 5.71875 -6.265625 L 3.40625 -6.265625 L 3.40625 0 L 2.375 0 L 2.375 -14.9375 Z M 5.71875 -7.265625 C 6.625 -7.265625 7.351562 -7.445312 7.90625 -7.8125 C 8.46875 -8.175781 8.863281 -8.617188 9.09375 -9.140625 C 9.332031 -9.671875 9.453125 -10.195312 9.453125 -10.71875 C 9.453125 -11.6875 9.140625 -12.46875 8.515625 -13.0625 C 7.898438 -13.65625 7.039062 -13.953125 5.9375 -13.953125 L 3.40625 -13.953125 L 3.40625 -7.265625 Z M 5.71875 -7.265625 "/></g></g></g></g></g></svg>